<svg width="48" height="48" viewBox="0 0 48 48" fill="none" xmlns="http://www.w3.org/2000/svg">
<path fill-rule="evenodd" clip-rule="evenodd" d="M13.5 10.5C13.5 10.1022 13.658 9.72064 13.9393 9.43934C14.2206 9.15804 14.6022 9 15 9H18C18.3978 9 18.7794 9.15804 19.0607 9.43934C19.342 9.72064 19.5 10.1022 19.5 10.5V37.5C19.5 37.8978 19.342 38.2794 19.0607 38.5607C18.7794 38.842 18.3978 39 18 39H15C14.6022 39 14.2206 38.842 13.9393 38.5607C13.658 38.2794 13.5 37.8978 13.5 37.5V10.5ZM28.5 10.5C28.5 10.1022 28.658 9.72064 28.9393 9.43934C29.2206 9.15804 29.6022 9 30 9H33C33.3978 9 33.7794 9.15804 34.0607 9.43934C34.342 9.72064 34.5 10.1022 34.5 10.5V37.5C34.5 37.8978 34.342 38.2794 34.0607 38.5607C33.7794 38.842 33.3978 39 33 39H30C29.6022 39 29.2206 38.842 28.9393 38.5607C28.658 38.2794 28.5 37.8978 28.5 37.5V10.5Z" fill="black"/>
</svg>
