<svg width="40" height="40" viewBox="0 0 40 40" fill="none" xmlns="http://www.w3.org/2000/svg">
<path d="M30.625 3.75C28.9 3.75 27.5 5.15 27.5 6.875V33.125C27.5 34.85 28.9 36.25 30.625 36.25H31.875C33.6 36.25 35 34.85 35 33.125V6.875C35 5.14833 33.6 3.75 31.875 3.75H30.625ZM16.25 14.375C16.25 12.6483 17.65 11.25 19.375 11.25H20.625C22.3517 11.25 23.75 12.65 23.75 14.375V33.125C23.75 34.85 22.35 36.25 20.625 36.25H19.375C18.5462 36.25 17.7513 35.9208 17.1653 35.3347C16.5792 34.7487 16.25 33.9538 16.25 33.125V14.375ZM5 21.875C5 20.1483 6.4 18.75 8.125 18.75H9.375C11.1017 18.75 12.5 20.15 12.5 21.875V33.125C12.5 34.85 11.1 36.25 9.375 36.25H8.125C7.2962 36.25 6.50134 35.9208 5.91529 35.3347C5.32924 34.7487 5 33.9538 5 33.125V21.875Z" fill="black"/>
</svg>
