<svg width="72" height="72" viewBox="0 0 72 72" fill="none" xmlns="http://www.w3.org/2000/svg">
<path d="M40.5 12.18C40.5 8.17201 35.652 6.16501 32.82 9.00001L19.32 22.5H13.524C10.101 22.5 6.57002 24.492 5.54402 28.215C4.84795 30.7513 4.49679 33.3699 4.50002 36C4.50002 38.694 4.86302 41.304 5.55002 43.785C6.57302 47.505 10.104 49.5 13.527 49.5H19.317L32.817 63C35.652 65.835 40.5 63.828 40.5 59.82V12.18ZM55.752 15.318C56.1739 14.8967 56.7458 14.66 57.342 14.66C57.9383 14.66 58.5101 14.8967 58.932 15.318C70.356 26.739 70.356 45.258 58.932 56.682C58.726 56.9031 58.4776 57.0804 58.2016 57.2034C57.9256 57.3263 57.6277 57.3925 57.3256 57.3978C57.0235 57.4031 56.7234 57.3475 56.4432 57.2344C56.1631 57.1212 55.9086 56.9528 55.6949 56.7391C55.4813 56.5255 55.3128 56.271 55.1997 55.9908C55.0865 55.7106 55.0309 55.4106 55.0362 55.1084C55.0416 54.8063 55.1077 54.5084 55.2307 54.2324C55.3537 53.9564 55.531 53.708 55.752 53.502C58.0506 51.2037 59.874 48.4752 61.118 45.4721C62.362 42.4691 63.0022 39.2505 63.0022 36C63.0022 32.7495 62.362 29.5309 61.118 26.5279C59.874 23.5249 58.0506 20.7963 55.752 18.498C55.3307 18.0761 55.094 17.5043 55.094 16.908C55.094 16.3118 55.3307 15.7399 55.752 15.318Z" fill="white"/>
<path d="M47.796 23.271C48.005 23.0619 48.2531 22.8961 48.5261 22.7829C48.7992 22.6697 49.0919 22.6115 49.3875 22.6115C49.6831 22.6115 49.9758 22.6697 50.2489 22.7829C50.522 22.8961 50.7701 23.0619 50.979 23.271C52.6508 24.9425 53.9769 26.9269 54.8817 29.111C55.7865 31.2951 56.2522 33.636 56.2522 36C56.2522 38.3641 55.7865 40.7049 54.8817 42.889C53.9769 45.0731 52.6508 47.0575 50.979 48.729C50.5545 49.1387 49.986 49.3652 49.3961 49.3598C48.8061 49.3544 48.2419 49.1175 47.8249 48.7001C47.4079 48.2827 47.1716 47.7183 47.1667 47.1284C47.1619 46.5384 47.3889 45.9702 47.799 45.546C49.0526 44.2924 50.047 42.8042 50.7255 41.1663C51.4039 39.5284 51.7531 37.7729 51.7531 36C51.7531 34.2271 51.4039 32.4716 50.7255 30.8337C50.047 29.1958 49.0526 27.7076 47.799 26.454C47.3777 26.0321 47.141 25.4603 47.141 24.864C47.141 24.2677 47.3777 23.6959 47.799 23.274L47.796 23.271Z" fill="white"/>
</svg>
